<?xml version="1.0" encoding="utf-8" ?>
<svg xmlns="http://www.w3.org/2000/svg" xmlns:xlink="http://www.w3.org/1999/xlink" width="333" height="333">
	<path fill="white" transform="matrix(1.665 0 0 1.665 -6.10352e-05 0)" d="M0 0L91.5582 0L108.61 0L200 0L200 91.1113L200 109.128L200 200L109.901 200L89.8372 200L0 200L0 108.676L0 91.3489L0 0ZM0 108.676L0 200L89.8372 200C87.9482 199.136 80.4261 198.111 77.822 197.544C71.536 196.174 65.348 194.106 59.4697 191.496C33.6611 180.036 13.246 157.712 4.73851 130.698C3.23094 125.911 2.09243 121.126 1.17949 116.195C0.745721 113.852 0.963059 111.038 0.0741435 108.851C0.0502146 108.792 0.0247145 108.734 0 108.676ZM109.901 200L200 200L200 109.128L199.968 109.209C199.074 111.526 199.094 114.524 198.673 117.009C197.92 121.444 196.93 125.832 195.568 130.122C186.894 157.437 166.73 179.747 140.631 191.485C134.605 194.195 127.929 196.467 121.457 197.823C118.421 198.459 112.281 198.963 109.901 200ZM108.61 0L108.689 0.0332413C111.029 1.00147 113.811 0.724401 116.292 1.17604C121.175 2.06497 125.896 3.18716 130.633 4.67892C157.791 13.2323 180.924 34.1103 192.001 60.3775C194.177 65.5386 196.239 70.9643 197.467 76.4355C198.025 78.9192 199.356 89.8253 200 91.1113L200 0L108.61 0ZM0 0L0 91.3489C0.645292 90.1273 1.71431 80.3096 2.27587 77.8452C3.85426 70.9183 6.21006 64.0895 9.21404 57.6528C21.0885 32.2095 43.3742 12.5762 70.2542 4.32634C74.4694 3.03261 78.7378 2.06223 83.0948 1.37268C85.7704 0.949232 88.958 0.962805 91.4807 0.0293813L91.5582 0L0 0Z"/>
	<path fill="#082429" transform="matrix(1.665 0 0 1.665 -6.10352e-05 0)" d="M77.941 95.1459L78.8178 95.6055C79.2937 96.2778 79.3844 97.3779 79.3857 98.1933C79.3876 99.4848 79.3589 100.916 78.4104 101.871L77.6397 101.505C77.1159 100.834 77.0222 99.6343 77.0143 98.7975C77.0029 97.5846 77.0641 96.0372 77.941 95.1459Z"/>
	<path fill="#082429" transform="matrix(1.665 0 0 1.665 -6.10352e-05 0)" d="M131.288 124.467C132.06 124.617 133.045 124.808 133.556 125.467C133.917 125.932 134.041 126.393 133.969 126.973C133.862 127.823 133.153 128.335 132.513 128.803C132.331 128.804 132.15 128.802 131.968 128.788C131.229 128.734 130.559 128.494 130.081 127.9C129.792 127.541 129.682 127.06 129.737 126.607C129.861 125.58 130.516 125.071 131.288 124.467Z"/>
	<path fill="#082429" transform="matrix(1.665 0 0 1.665 -6.10352e-05 0)" d="M130.182 133.315C131.403 133.22 132.659 133.276 133.885 133.282C133.969 134.877 134.229 136.976 133.651 138.484C132.404 138.528 131.141 138.471 129.893 138.451C129.757 136.896 129.409 134.742 130.182 133.315Z"/>
	<path fill="#082429" transform="matrix(1.665 0 0 1.665 -6.10352e-05 0)" d="M130 143.542C131.307 143.427 132.63 143.501 133.94 143.531C134.013 145.23 134.083 147.013 133.72 148.683C132.933 148.751 131.948 148.889 131.167 148.77C130.664 148.694 130.208 148.327 129.934 147.909C129.27 146.898 129.757 144.675 130 143.542Z"/>
	<path fill="#082429" transform="matrix(1.665 0 0 1.665 -6.10352e-05 0)" d="M127.306 104.047C129.481 104.009 131.663 104.04 133.839 104.04C133.926 105.737 133.838 107.439 133.779 109.137C131.623 109.306 129.439 109.22 127.278 109.2C127.222 107.486 127.283 105.762 127.306 104.047Z"/>
	<path fill="#082429" transform="matrix(1.665 0 0 1.665 -6.10352e-05 0)" d="M127.281 114.074C129.462 113.975 131.653 114.036 133.836 114.057C133.923 115.795 133.832 117.541 133.777 119.279C131.622 119.351 129.447 119.304 127.291 119.31C127.245 117.568 127.28 115.817 127.281 114.074Z"/>
	<path fill="#082429" transform="matrix(1.665 0 0 1.665 -6.10352e-05 0)" d="M56.3295 99.0123C56.478 99.004 56.6262 98.9966 56.775 98.9954C57.6408 98.9885 58.4419 99.1072 59.0725 99.7577C60.9782 101.724 60.0923 112.336 59.9771 115.293C59.4172 115.896 58.7479 116.385 58.1023 116.891C57.8609 116.928 57.6194 116.96 57.3748 116.966C56.609 116.986 55.8291 116.726 55.2921 116.168C53.4191 114.225 54.2384 103.75 54.2813 100.616C54.8714 100.001 55.6426 99.5156 56.3295 99.0123Z"/>
	<path fill="white" transform="matrix(1.665 0 0 1.665 -6.10352e-05 0)" d="M77.5996 173.118C85.8371 172.701 94.2395 172.936 102.496 172.937C114.199 172.939 125.897 173.001 137.582 173.695C142.432 173.984 147.531 174.071 152.227 175.374C145.446 176.982 131.455 177.131 124.063 177.264C107.493 177.482 90.8361 177.694 74.2707 177.14C69.6103 176.984 64.9822 176.606 60.3298 176.353C58.3102 176.244 51.3779 176.366 49.9604 175.304L50.0159 175.036C53.3528 173.666 72.8402 173.27 77.5996 173.118Z"/>
	<path fill="#082429" transform="matrix(1.665 0 0 1.665 -6.10352e-05 0)" d="M100.462 32.0923C102.776 32.1674 104.793 32.6846 106.758 33.9324C109.317 35.5573 111.112 38.1877 111.761 41.1405C112.425 44.1663 111.792 47.2916 110.104 49.8763C107.935 53.1991 104.911 54.5108 101.155 55.2957C98.3852 55.1757 95.7684 54.4091 93.5796 52.6548C91.1913 50.7407 89.7079 47.9319 89.3909 44.8947C89.0734 41.8523 89.9148 38.6966 91.8721 36.3223C94.1118 33.6055 97.0338 32.4169 100.462 32.0923Z"/>
	<path fill="#082429" transform="matrix(1.665 0 0 1.665 -6.10352e-05 0)" d="M111.178 55.2819L126.054 55.2212C132.238 55.2316 137.308 56.0905 141.843 60.6734C144.417 63.2759 146.277 66.5596 146.961 70.1738C147.464 72.8344 147.236 75.906 147.239 78.6102L147.246 92.0899L147.232 141.8C147.203 148.427 146.16 153.997 141.231 158.841C134.3 165.652 125.248 164.578 116.347 164.494C116.202 164.362 116.082 164.232 115.986 164.059C115.341 162.889 116.357 160.054 116.681 158.775C120.627 158.635 124.681 159.053 128.605 158.646C132.542 158.239 135.922 156.295 138.392 153.223C139.802 151.468 140.751 149.305 141.053 147.072C141.595 143.063 141.281 138.685 141.277 134.641L141.259 112.272L141.276 85.6821C141.277 81.1272 141.627 76.2298 141.094 71.7118C140.706 68.4297 138.728 65.5595 136.174 63.5446C130.877 59.3661 126.721 61.7177 121.127 61.1933C119.875 61.076 118.586 60.252 117.334 59.9784C113.955 59.2398 109.744 59.3471 106.311 59.7632C107.999 58.3346 109.586 56.8158 111.178 55.2819Z"/>
	<path fill="#082429" transform="matrix(1.665 0 0 1.665 -6.10352e-05 0)" d="M70.4367 55.3462C72.6758 55.0737 75.1091 55.232 77.3694 55.236L89.6772 55.2725C91.2317 56.8571 93.0707 58.214 94.7909 59.6155C90.4674 59.1984 86.3458 59.7759 82.7287 62.31C75.0916 67.6604 73.7261 79.8238 72.239 88.3074C73.4164 87.9581 74.5855 87.5719 75.7573 87.2037C76.6977 81.4044 77.9119 72.8966 81.4137 68.1154C82.9903 65.9627 85.6854 63.8824 88.3689 63.4702C92.3246 62.8627 113.461 62.8272 117.175 63.5912C118.392 63.8415 119.458 64.5651 120.442 65.2938C123.709 67.7136 125.058 71.0539 125.642 74.973L129.647 72.4286C128.937 70.3347 128.056 68.3822 127.011 66.4344C129.047 66.8823 131.222 67.5074 132.913 68.7753C133.715 69.3769 134.552 70.1655 134.693 71.2023C135.166 74.6779 134.899 78.4144 134.894 81.9232C134.89 85.2954 135.114 88.8031 134.714 92.1508C131.552 96.0599 126.892 98.1603 122.396 100.114C122.148 104.354 120.567 108.623 119.833 112.815C119.34 115.627 119.487 118.525 118.969 121.334C117.753 127.936 115.804 134.512 114.228 141.044C112.349 148.833 110.745 156.753 108.64 164.479C106.573 164.541 104.5 164.503 102.432 164.495C102.124 160.832 102.305 157.032 102.304 153.354L102.324 133.573C101.252 134.292 100.227 135.079 99.1934 135.851C99.0085 141.661 99.1421 147.538 99.1916 153.353C99.2194 156.623 99.7332 160.79 98.8949 163.936C98.3663 164.457 98.2509 164.378 97.5348 164.416C96.963 163.949 96.8196 163.508 96.5882 162.82C95.6871 160.141 95.1701 157.222 94.5081 154.467C93.0164 148.258 91.5934 141.943 89.7674 135.826C97.0959 132.442 104.205 127.424 109.893 121.705C106.782 117.624 104.097 113.094 101.291 108.795C99.973 110.16 98.5546 111.402 97.1327 112.655C98.1828 115.001 101.92 119.758 101.446 122.221C101.05 122.653 100.934 122.642 100.381 122.733C99.7625 122.479 99.6641 122.24 99.279 121.708C97.8116 119.3 96.5983 116.667 95.3004 114.161C93.5685 115.685 91.5597 117.02 89.6174 118.257C90.6037 120.537 93.1153 125.464 92.5389 127.975C92.455 128.341 92.3836 128.348 92.0776 128.538C91.9764 128.501 91.9329 128.488 91.8293 128.434C89.9354 127.447 88.2984 121.434 87.5222 119.346C85.2218 120.59 82.9627 121.76 80.458 122.541L82.5744 138.387L86.7838 137.042C87.7816 141.594 93.3576 161.107 93.2172 164.025C89.1043 165.148 81.3842 164.564 76.8494 164.556C70.2592 164.546 64.4221 163.405 59.6048 158.536C53.9923 152.863 54.1891 146.02 54.2038 138.622L54.2399 127.13C60.2095 120.915 68.7663 120.694 76.5538 118.499C79.4775 117.675 82.1489 116.455 84.8603 115.116C84.3963 113.189 84.1579 111.185 83.8503 109.227C80.9375 110.556 77.7693 111.559 74.731 112.572L75.4295 107.292C80.2614 105.146 85.0984 103.664 90.2215 102.383L90.1514 88.336C88.2079 88.6271 86.3112 89.1833 84.4153 89.6902C84.4917 91.8297 84.8274 94.4027 84.103 96.4456C83.9128 96.982 83.7436 97.2927 83.2301 97.5251C83.1097 97.4566 83.093 97.4575 82.9862 97.3366C81.7359 95.9195 82.1508 92.0807 82.1717 90.2917C78.622 91.5022 75.2128 92.8228 71.7504 94.2654C71.767 100.366 72.2043 106.85 71.5901 112.913C70.5295 113.416 69.4246 113.984 68.2792 114.264C67.5587 114.441 67.1845 114.368 66.5709 113.987C66.3375 113.462 66.2089 112.939 66.1543 112.367C65.8409 109.081 66.1406 105.554 66.1428 102.243C66.1511 89.403 66.388 71.2569 74.9043 60.886C73.3559 60.89 71.8025 60.8833 70.2783 61.1897C55.6467 64.1307 62.3206 78.7065 59.4212 82.7864C58.9873 83.3968 58.2402 83.8483 57.5037 83.9645C56.7706 84.0802 56.0462 83.9032 55.4555 83.4523C54.6232 82.8169 54.3822 81.8354 54.2644 80.8425C54.0569 79.094 54.1913 77.2572 54.2229 75.4958C54.3165 70.2855 54.7496 66.2488 58.1415 62.0102C61.2526 58.1225 65.5205 55.8842 70.4367 55.3462Z"/>
	<path fill="#FDFDFD" transform="matrix(1.665 0 0 1.665 -6.10352e-05 0)" d="M114.638 102.111C115.046 102.121 115.443 102.2 115.845 102.268C117.257 103.5 118.52 105.48 118.896 107.332C119.06 108.142 118.766 108.821 118.318 109.477C118.053 109.252 117.808 109.018 117.586 108.749C116.608 107.565 113.754 104.353 113.916 102.702L114.638 102.111Z"/>
	<path fill="#FDFDFD" transform="matrix(1.665 0 0 1.665 -6.10352e-05 0)" d="M106.774 68.0028C108.478 67.9656 110.219 67.9999 111.914 67.8192C111.906 71.5504 111.795 75.3247 111.948 79.05C110.805 79.2308 109.633 79.4787 108.484 79.5831C109.327 74.2284 109.859 72.7218 106.774 68.0028Z"/>
	<path fill="#FDFDFD" transform="matrix(1.665 0 0 1.665 -6.10352e-05 0)" d="M114.051 67.6206C115.673 68.1258 116.823 68.7907 118.096 69.8936C118.281 71.5143 118.683 76.5993 117.899 77.8292L113.966 78.688C113.947 74.9982 113.906 71.3085 114.051 67.6206Z"/>
	<path fill="#FDFDFD" transform="matrix(1.665 0 0 1.665 -6.10352e-05 0)" d="M125.351 80.1861C126.537 80.1252 128.107 79.0548 129.085 78.3916C129.047 82.5707 129.031 86.7417 129.122 90.9206C127.693 91.8668 126.196 93.0038 124.552 93.5259C124.591 92.436 125.029 91.2578 125.306 90.2026C125.754 87.6912 126.308 85.1126 126.275 82.5541C126.26 81.4193 126.16 80.9766 125.351 80.1861Z"/>
	<path fill="white" transform="matrix(1.665 0 0 1.665 -6.10352e-05 0)" d="M125.351 80.1861C126.16 80.9766 126.26 81.4193 126.275 82.5541C126.308 85.1126 125.754 87.6912 125.306 90.2026C125.029 91.2578 124.591 92.436 124.552 93.5259C122.19 94.892 119.276 95.7679 116.691 96.641C116.655 92.2002 116.661 87.7659 116.733 83.3255C118.539 82.6933 120.405 82.1969 122.24 81.6551C122.261 83.6725 121.594 87.612 122.916 89.1259C123.628 89.192 123.786 89.1016 124.397 88.7863C124.651 86.6652 124.382 84.4143 124.453 82.2689C124.487 81.2132 124.593 80.8963 125.351 80.1861Z"/>
	<path fill="#FDFDFD" transform="matrix(1.665 0 0 1.665 -6.10352e-05 0)" d="M110.164 103.552C110.4 103.479 110.713 103.523 110.961 103.526C112.665 104.876 115.774 110.28 117.13 112.366C115.469 115.094 113.476 117.639 111.516 120.159L108.264 115.143C106.401 113.049 104.368 109.509 102.931 107.053L104.745 104.845L105.314 105.721C106.241 107.138 107.282 109.01 109.088 109.387L109.524 109.081C109.538 108.988 109.544 108.967 109.549 108.862C109.639 107.104 107.984 105.387 106.919 104.149C108.013 104.02 109.087 103.777 110.164 103.552Z"/>
	<path fill="white" transform="matrix(1.665 0 0 1.665 -6.10352e-05 0)" d="M95.2522 69.595C96.3908 72.1553 94.9606 78.5131 95.6377 81.6451C92.9709 82.8364 87.2384 83.7338 84.1029 84.6436C84.0139 80.9822 84.0028 77.3278 84.02 73.6659L87.1553 71.9936C87.1018 74.4733 86.7042 77.743 87.914 79.979L88.4447 80.1127C90.095 78.2768 89.4879 73.4707 89.4327 71.1743C91.3789 70.7292 93.3416 70.1745 95.2522 69.595Z"/>
	<path fill="white" transform="matrix(1.665 0 0 1.665 -6.10352e-05 0)" d="M67.5584 125.796C67.5842 125.809 67.614 125.817 67.6357 125.836C68.2641 126.39 68.0247 138.969 68.0235 140.844C65.2103 141.196 62.9501 141.942 60.4713 143.298C60.3378 143.255 60.2011 143.099 60.0932 143.006C59.7544 138.309 60.0259 133.406 60.031 128.687C62.4877 127.474 64.9209 126.524 67.5584 125.796Z"/>
	<path fill="white" transform="matrix(1.665 0 0 1.665 -6.10352e-05 0)" d="M77.5002 123.544L78.0396 123.612C78.8814 125.179 80.0018 136.174 80.4807 138.819C77.8797 139.492 72.8139 140.734 70.2325 140.33C69.8617 139.607 70.0041 138.49 70.0042 137.688C70.0053 135.833 69.6158 126.754 70.23 125.45C70.8501 125.215 71.3593 125.056 72.0262 125.036C73.5388 126.212 72.0682 129.053 73.2004 130.679C73.7684 130.735 74.01 130.584 74.521 130.36C75.3834 129.406 74.9956 125.573 74.992 124.227L77.5002 123.544Z"/>
	<path fill="white" transform="matrix(1.665 0 0 1.665 -6.10352e-05 0)" d="M103.732 68.4289C103.734 70.7214 103.074 74.3882 104.181 76.4051C104.732 76.8113 104.751 76.808 105.435 76.7658C106.779 75.3221 105.542 70.7997 106.025 68.801C106.147 68.295 106.354 68.2561 106.774 68.0028C109.859 72.7218 109.327 74.2284 108.484 79.5831C104.998 80.2808 101.428 80.6852 97.962 81.4357C97.2104 81.5457 96.3944 81.7326 95.6377 81.6451C94.9606 78.5131 96.3908 72.1553 95.2522 69.595C96.0929 69.523 96.9338 69.2898 97.7567 69.1067C99.7426 68.9591 101.752 68.6549 103.732 68.4289Z"/>
	<path fill="#152E33" transform="matrix(1.665 0 0 1.665 -6.10352e-05 0)" d="M95.2522 69.595C96.0929 69.523 96.9338 69.2898 97.7567 69.1067C97.731 71.3116 97.2691 80.0992 97.962 81.4357C97.2104 81.5457 96.3944 81.7326 95.6377 81.6451C94.9606 78.5131 96.3908 72.1553 95.2522 69.595Z"/>
	<path fill="white" transform="matrix(1.665 0 0 1.665 -6.10352e-05 0)" d="M71.4091 146.122C74.9437 146.052 78.4855 146.117 82.0208 146.139C82.8712 150.342 84.1761 154.547 85.1837 158.731L74.4464 158.742C72.6977 158.745 70.9874 158.532 69.3318 157.959C65.0967 156.492 62.666 153.568 60.7466 149.652C63.6743 146.541 67.3958 146.261 71.4091 146.122Z"/>
	<path fill="white" transform="matrix(1.665 0 0 1.665 -6.10352e-05 0)" d="M109 84.7554C110.842 84.4608 112.69 84.1883 114.527 83.8637C114.529 88.2849 114.515 92.707 114.575 97.1279C107.178 98.9245 99.714 100.135 92.2942 101.778L92.2883 87.7662C94.1457 87.4493 96.5569 87.3303 98.2795 86.6207L100.752 86.147C102.757 85.8544 104.776 85.5986 106.769 85.2273C106.726 87.3496 106.393 90.2355 107.567 92.1007L107.846 92.2785C108.598 91.7468 108.794 90.6243 108.935 89.7667C109.198 88.1704 109.033 86.3745 109 84.7554Z"/>
	<path fill="#152E33" transform="matrix(1.665 0 0 1.665 -6.10352e-05 0)" d="M98.2795 86.6207L100.752 86.147C100.757 87.7372 101.034 96.52 100.618 97.2434C100.51 97.4307 100.275 97.6477 100.132 97.8169C99.5551 97.9935 99.4423 98.0454 98.8464 97.8396C97.2128 95.2222 99.515 89.2437 98.2795 86.6207Z"/>
</svg>
